<svg width="147" height="93" viewBox="0 0 147 93" fill="none" xmlns="http://www.w3.org/2000/svg">
<rect width="147" height="93" rx="20" fill="#B69E51"/>
<path d="M32.3171 75C28.9394 75 25.8833 74.3039 23.149 72.9116C20.4146 71.5193 18.0623 69.5599 16.092 67.0332C14.1216 64.5064 12.6137 61.5414 11.5682 58.1381C10.5227 54.6832 10 50.9448 10 46.9227C10 42.9006 10.5428 39.2136 11.6285 35.8619C12.7544 32.4586 14.3428 29.4936 16.3935 26.9669C18.4443 24.4401 20.857 22.4807 23.6315 21.0884C26.4463 19.6961 29.5023 19 32.7996 19C35.1318 19 37.3233 19.3867 39.3741 20.1602C41.4651 20.9337 43.355 21.9908 45.0438 23.3315C46.7327 24.6722 48.1602 26.2192 49.3263 27.9724L43.1137 36.4033C42.1084 35.1657 41.063 34.1344 39.9773 33.3094C38.9318 32.4843 37.8059 31.8398 36.5995 31.3757C35.3932 30.86 34.1065 30.6022 32.7393 30.6022C30.97 30.6022 29.3415 31.0147 27.8537 31.8398C26.4061 32.6648 25.1193 33.825 23.9934 35.3204C22.9077 36.7643 22.0633 38.4917 21.4601 40.5028C20.857 42.4622 20.5554 44.6022 20.5554 46.9227C20.5554 49.2431 20.8771 51.4088 21.5204 53.4199C22.1638 55.4309 23.0485 57.1842 24.1744 58.6796C25.3003 60.1234 26.6272 61.2836 28.1552 62.1602C29.7235 62.9853 31.3922 63.3978 33.1615 63.3978C34.408 63.3978 35.5742 63.14 36.6599 62.6243C37.7858 62.1087 38.7508 61.4125 39.555 60.5359C40.3593 59.6593 41.0026 58.628 41.4852 57.442C41.9677 56.2044 42.209 55.5083 42.209 54.116H31.8949V43.8287H51.739C51.8194 44.396 51.8797 45.1694 51.9199 46.1492C51.9601 47.1289 51.9802 48.0829 51.9802 49.0111C52.0204 49.9392 52.0405 50.6354 52.0405 51.0995C52.0405 54.6059 51.5379 57.8287 50.5326 60.768C49.5676 63.6556 48.2004 66.1565 46.4311 68.2707C44.6618 70.3849 42.5709 72.035 40.1582 73.221C37.7456 74.407 35.1318 75 32.3171 75Z" fill="#F5F5F5"/>
<path d="M79.076 75C75.8993 75 72.9639 74.3297 70.2698 72.989C67.6158 71.5967 65.3037 69.663 63.3334 67.1879C61.363 64.6611 59.835 61.6961 58.7493 58.2928C57.7038 54.8379 57.1811 51.0479 57.1811 46.9227C57.1811 42.9006 57.7441 39.1878 58.87 35.7845C59.9959 32.3812 61.544 29.442 63.5143 26.9669C65.5249 24.4401 67.8772 22.4807 70.5714 21.0884C73.3057 19.6961 76.2813 19 79.4982 19C81.5087 19 83.4791 19.3352 85.4092 20.0055C87.3393 20.6759 89.1287 21.6814 90.7773 23.0221C92.4662 24.3112 93.9138 25.8582 95.1201 27.663L88.8472 36.8674C88.0028 35.733 87.0981 34.7532 86.133 33.9282C85.2081 33.0516 84.1828 32.3812 83.0569 31.9171C81.9309 31.453 80.7246 31.221 79.4379 31.221C77.8294 31.221 76.3014 31.6077 74.8538 32.3812C73.4464 33.1031 72.1999 34.1602 71.1142 35.5525C70.0687 36.8932 69.2444 38.5433 68.6412 40.5028C68.0381 42.4622 67.7365 44.6538 67.7365 47.0774C67.7365 49.4494 68.0381 51.6151 68.6412 53.5746C69.2444 55.4825 70.0888 57.1326 71.1745 58.5249C72.2602 59.9171 73.5671 60.9742 75.0951 61.6961C76.6633 62.4181 78.3924 62.779 80.2823 62.779C81.569 62.779 82.7955 62.547 83.9616 62.0829C85.1277 61.6188 86.1933 61 87.1584 60.2265C88.1636 59.4015 89.0483 58.4733 89.8123 57.442L94.7582 67.4972C93.753 68.9411 92.4059 70.2302 90.717 71.3646C89.0684 72.4991 87.2187 73.4015 85.1679 74.0718C83.1574 74.6906 81.1267 75 79.076 75Z" fill="#F5F5F5"/>
<path d="M120.956 75C117.779 75 114.844 74.3297 112.15 72.989C109.496 71.5967 107.184 69.663 105.213 67.1879C103.243 64.6611 101.715 61.6961 100.629 58.2928C99.5837 54.8379 99.061 51.0479 99.061 46.9227C99.061 42.9006 99.6239 39.1878 100.75 35.7845C101.876 32.3812 103.424 29.442 105.394 26.9669C107.405 24.4401 109.757 22.4807 112.451 21.0884C115.186 19.6961 118.161 19 121.378 19C123.389 19 125.359 19.3352 127.289 20.0055C129.219 20.6759 131.009 21.6814 132.657 23.0221C134.346 24.3112 135.794 25.8582 137 27.663L130.727 36.8674C129.883 35.733 128.978 34.7532 128.013 33.9282C127.088 33.0516 126.063 32.3812 124.937 31.9171C123.811 31.453 122.604 31.221 121.318 31.221C119.709 31.221 118.181 31.6077 116.734 32.3812C115.326 33.1031 114.08 34.1602 112.994 35.5525C111.949 36.8932 111.124 38.5433 110.521 40.5028C109.918 42.4622 109.616 44.6538 109.616 47.0774C109.616 49.4494 109.918 51.6151 110.521 53.5746C111.124 55.4825 111.969 57.1326 113.054 58.5249C114.14 59.9171 115.447 60.9742 116.975 61.6961C118.543 62.4181 120.272 62.779 122.162 62.779C123.449 62.779 124.675 62.547 125.841 62.0829C127.008 61.6188 128.073 61 129.038 60.2265C130.043 59.4015 130.928 58.4733 131.692 57.442L136.638 67.4972C135.633 68.9411 134.286 70.2302 132.597 71.3646C130.948 72.4991 129.099 73.4015 127.048 74.0718C125.037 74.6906 123.007 75 120.956 75Z" fill="#F5F5F5"/>
</svg>
