<svg width="607" height="120" viewBox="0 0 607 120" fill="none" xmlns="http://www.w3.org/2000/svg">
<rect x="442" y="14" width="165" height="71" rx="5" fill="#D43939"/>
<path d="M62.9 46.4V81.9C58.2 83.5 49.3 85.7 40.4 85.7C28.1 85.7 19.2 82.6 13 76.6C6.8 70.8 3.4 62 3.5 52.1C3.6 29.7 19.9 16.9 42 16.9C50.7 16.9 57.4 18.6 60.7 20.2L57.5 32.4C53.8 30.8 49.2 29.5 41.8 29.5C29.1 29.5 19.5 36.7 19.5 51.3C19.5 65.2 28.2 73.4 40.7 73.4C44.2 73.4 47 73 48.2 72.4V58.3H37.8V46.4H62.9ZM121.964 71.2L124.264 83.1C121.464 84.5 115.164 86.1 106.964 86.1C83.6641 86.1 71.6641 71.5 71.6641 52.3C71.6641 29.3 88.0641 16.5 108.464 16.5C116.364 16.5 122.364 18.1 125.064 19.5L121.964 31.6C118.864 30.3 114.564 29.1 109.164 29.1C97.0641 29.1 87.6641 36.4 87.6641 51.4C87.6641 64.9 95.6641 73.4 109.264 73.4C113.864 73.4 118.964 72.4 121.964 71.2ZM178.409 71.2L180.709 83.1C177.909 84.5 171.609 86.1 163.409 86.1C140.109 86.1 128.109 71.5 128.109 52.3C128.109 29.3 144.509 16.5 164.909 16.5C172.809 16.5 178.809 18.1 181.509 19.5L178.409 31.6C175.309 30.3 171.009 29.1 165.609 29.1C153.509 29.1 144.109 36.4 144.109 51.4C144.109 64.9 152.109 73.4 165.709 73.4C170.309 73.4 175.409 72.4 178.409 71.2ZM205.049 85V30.4H186.949V17.6H238.749V30.4H220.349V85H205.049ZM240.963 85V52.2C240.963 45 240.763 40.3 240.563 36.1H253.663L254.163 45.1H254.563C257.063 38 263.063 35 267.763 35C269.163 35 269.863 35 270.963 35.2V49.6C269.863 49.3 268.563 49.1 266.863 49.1C261.263 49.1 257.463 52.1 256.463 56.8C256.263 57.8 256.163 59 256.163 60.2V85H240.963ZM318.677 56.1V73.1C318.677 77.8 318.877 82.3 319.377 85H305.677L304.777 80.1H304.477C301.277 84 296.277 86.1 290.477 86.1C280.577 86.1 274.677 78.9 274.677 71.1C274.677 58.4 286.077 52.3 303.377 52.4V51.7C303.377 49.1 301.977 45.4 294.477 45.4C289.477 45.4 284.177 47.1 280.977 49.1L278.177 39.3C281.577 37.4 288.277 35 297.177 35C313.477 35 318.677 44.6 318.677 56.1ZM303.877 67.2V61.9C295.877 61.8 289.677 63.7 289.677 69.6C289.677 73.5 292.277 75.4 295.677 75.4C299.477 75.4 302.577 72.9 303.577 69.8C303.777 69 303.877 68.1 303.877 67.2ZM362.909 14H378.109V70.4C378.109 75.9 378.309 81.7 378.509 85H365.009L364.309 77.8H364.109C361.009 83.3 355.109 86.1 348.809 86.1C337.209 86.1 327.909 76.2 327.909 61C327.809 44.5 338.109 35 349.809 35C355.809 35 360.509 37.1 362.709 40.5H362.909V14ZM362.909 63.2V56.8C362.909 56 362.809 54.9 362.709 54.1C361.809 50 358.509 46.6 353.809 46.6C346.909 46.6 343.309 52.8 343.309 60.5C343.309 68.8 347.409 74 353.709 74C358.109 74 361.609 71 362.509 66.7C362.809 65.6 362.909 64.5 362.909 63.2ZM433.48 65.4H401.98C402.48 71.7 408.68 74.7 415.78 74.7C420.98 74.7 425.18 74 429.28 72.7L431.28 83C426.28 85 420.18 86.1 413.58 86.1C396.98 86.1 387.48 76.4 387.48 61.1C387.48 48.7 395.18 35 412.18 35C427.98 35 433.98 47.3 433.98 59.4C433.98 62 433.68 64.3 433.48 65.4ZM401.88 55H419.88C419.88 51.3 418.28 45.1 411.28 45.1C404.88 45.1 402.28 50.9 401.88 55Z" fill="#F5F5F5"/>
<path d="M459.214 77.792H459.142C455.47 77.792 452.806 74.984 452.806 71.168C452.806 67.28 455.47 64.472 459.286 64.472C463.102 64.472 465.694 67.208 465.694 71.168C465.694 74.984 463.102 77.792 459.214 77.792Z" fill="#DEC583"/>
<path d="M473.216 77V48.029C473.216 42.722 473.042 38.198 472.868 34.457H484.352L484.961 40.286H485.222C486.962 37.589 491.312 33.5 498.359 33.5C507.059 33.5 513.584 39.242 513.584 51.77V77H500.36V53.423C500.36 47.942 498.446 44.201 493.661 44.201C490.007 44.201 487.832 46.724 486.962 49.16C486.614 50.03 486.44 51.248 486.44 52.466V77H473.216ZM561.776 59.948H534.371C534.806 65.429 540.2 68.039 546.377 68.039C550.901 68.039 554.555 67.43 558.122 66.299L559.862 75.26C555.512 77 550.205 77.957 544.463 77.957C530.021 77.957 521.756 69.518 521.756 56.207C521.756 45.419 528.455 33.5 543.245 33.5C556.991 33.5 562.211 44.201 562.211 54.728C562.211 56.99 561.95 58.991 561.776 59.948ZM534.284 50.9H549.944C549.944 47.681 548.552 42.287 542.462 42.287C536.894 42.287 534.632 47.333 534.284 50.9ZM571.983 26.453L584.946 22.886V34.457H594.429V44.201H584.946V59.6C584.946 64.733 586.164 67.082 590.166 67.082C591.993 67.082 592.776 66.995 594.081 66.734L594.168 76.739C592.428 77.435 589.296 77.957 585.555 77.957C581.292 77.957 577.725 76.391 575.637 74.216C573.201 71.693 571.983 67.604 571.983 61.601V44.201H566.328V34.457H571.983V26.453Z" fill="#F5F5F5"/>
</svg>
