<svg width="1015" height="1015" viewBox="0 0 1015 1015" fill="none" xmlns="http://www.w3.org/2000/svg">
<path d="M332.5 0C342.165 0 350 7.8351 350 17.5C350 27.1654 342.165 35 332.5 35C322.835 35 315 27.1654 315 17.5C315 7.8351 322.835 0 332.5 0Z" fill="#71979D"/>
<path d="M437.5 0C447.165 0 455 7.8351 455 17.5C455 27.1654 447.165 35 437.5 35C427.835 35 420 27.1654 420 17.5C420 7.8351 427.835 0 437.5 0Z" fill="#71979D"/>
<path d="M507.5 0C517.165 0 525 7.8351 525 17.5C525 27.1654 517.165 35 507.5 35C497.835 35 490 27.1654 490 17.5C490 7.8351 497.835 0 507.5 0Z" fill="#71979D"/>
<path d="M577.5 0C587.165 0 595 7.8351 595 17.5C595 27.1654 587.165 35 577.5 35C567.835 35 560 27.1654 560 17.5C560 7.8351 567.835 0 577.5 0Z" fill="#71979D"/>
<path d="M297.5 35C307.165 35 315 42.8351 315 52.5C315 62.1654 307.165 70 297.5 70C287.835 70 280 62.1654 280 52.5C280 42.8351 287.835 35 297.5 35Z" fill="#71979D"/>
<path d="M332.5 35C342.165 35 350 42.8351 350 52.5C350 62.1654 342.165 70 332.5 70C322.835 70 315 62.1654 315 52.5C315 42.8351 322.835 35 332.5 35Z" fill="#71979D"/>
<path d="M472.5 35C482.165 35 490 42.8351 490 52.5C490 62.1654 482.165 70 472.5 70C462.835 70 455 62.1654 455 52.5C455 42.8351 462.835 35 472.5 35Z" fill="#71979D"/>
<path d="M507.5 35C517.165 35 525 42.8351 525 52.5C525 62.1654 517.165 70 507.5 70C497.835 70 490 62.1654 490 52.5C490 42.8351 497.835 35 507.5 35Z" fill="#71979D"/>
<path d="M542.5 35C552.165 35 560 42.8351 560 52.5C560 62.1654 552.165 70 542.5 70C532.835 70 525 62.1654 525 52.5C525 42.8351 532.835 35 542.5 35Z" fill="#71979D"/>
<path d="M577.5 35C587.165 35 595 42.8351 595 52.5C595 62.1654 587.165 70 577.5 70C567.835 70 560 62.1654 560 52.5C560 42.8351 567.835 35 577.5 35Z" fill="#71979D"/>
<path d="M612.5 35C622.165 35 630 42.8351 630 52.5C630 62.1654 622.165 70 612.5 70C602.835 70 595 62.1654 595 52.5C595 42.8351 602.835 35 612.5 35Z" fill="#71979D"/>
<path d="M682.5 35C692.165 35 700 42.8351 700 52.5C700 62.1654 692.165 70 682.5 70C672.835 70 665 62.1654 665 52.5C665 42.8351 672.835 35 682.5 35Z" fill="#71979D"/>
<path d="M367.5 70C377.165 70 385 77.8351 385 87.5C385 97.1654 377.165 105 367.5 105C357.835 105 350 97.1654 350 87.5C350 77.8351 357.835 70 367.5 70Z" fill="#71979D"/>
<path d="M402.5 70C412.165 70 420 77.8351 420 87.5C420 97.1654 412.165 105 402.5 105C392.835 105 385 97.1654 385 87.5C385 77.8351 392.835 70 402.5 70Z" fill="#71979D"/>
<path d="M437.5 70C447.165 70 455 77.8351 455 87.5C455 97.1654 447.165 105 437.5 105C427.835 105 420 97.1654 420 87.5C420 77.8351 427.835 70 437.5 70Z" fill="#71979D"/>
<path d="M507.5 70C517.165 70 525 77.8351 525 87.5C525 97.1654 517.165 105 507.5 105C497.835 105 490 97.1654 490 87.5C490 77.8351 497.835 70 507.5 70Z" fill="#71979D"/>
<path d="M577.5 70C587.165 70 595 77.8351 595 87.5C595 97.1654 587.165 105 577.5 105C567.835 105 560 97.1654 560 87.5C560 77.8351 567.835 70 577.5 70Z" fill="#71979D"/>
<path d="M612.5 70C622.165 70 630 77.8351 630 87.5C630 97.1654 622.165 105 612.5 105C602.835 105 595 97.1654 595 87.5C595 77.8351 602.835 70 612.5 70Z" fill="#71979D"/>
<path d="M647.5 70C657.165 70 665 77.8351 665 87.5C665 97.1654 657.165 105 647.5 105C637.835 105 630 97.1654 630 87.5C630 77.8351 637.835 70 647.5 70Z" fill="#71979D"/>
<path d="M717.5 70C727.165 70 735 77.8351 735 87.5C735 97.1654 727.165 105 717.5 105C707.835 105 700 97.1654 700 87.5C700 77.8351 707.835 70 717.5 70Z" fill="#71979D"/>
<path d="M402.5 105C412.165 105 420 112.835 420 122.5C420 132.165 412.165 140 402.5 140C392.835 140 385 132.165 385 122.5C385 112.835 392.835 105 402.5 105Z" fill="#71979D"/>
<path d="M472.5 105C482.165 105 490 112.835 490 122.5C490 132.165 482.165 140 472.5 140C462.835 140 455 132.165 455 122.5C455 112.835 462.835 105 472.5 105Z" fill="#71979D"/>
<path d="M542.5 105C552.165 105 560 112.835 560 122.5C560 132.165 552.165 140 542.5 140C532.835 140 525 132.165 525 122.5C525 112.835 532.835 105 542.5 105Z" fill="#71979D"/>
<path d="M717.5 105C727.165 105 735 112.835 735 122.5C735 132.165 727.165 140 717.5 140C707.835 140 700 132.165 700 122.5C700 112.835 707.835 105 717.5 105Z" fill="#71979D"/>
<path d="M332.5 140C342.165 140 350 147.835 350 157.5C350 167.165 342.165 175 332.5 175C322.835 175 315 167.165 315 157.5C315 147.835 322.835 140 332.5 140Z" fill="#71979D"/>
<path d="M402.5 140C412.165 140 420 147.835 420 157.5C420 167.165 412.165 175 402.5 175C392.835 175 385 167.165 385 157.5C385 147.835 392.835 140 402.5 140Z" fill="#71979D"/>
<path d="M437.5 140C447.165 140 455 147.835 455 157.5C455 167.165 447.165 175 437.5 175C427.835 175 420 167.165 420 157.5C420 147.835 427.835 140 437.5 140Z" fill="#71979D"/>
<path d="M577.5 140C587.165 140 595 147.835 595 157.5C595 167.165 587.165 175 577.5 175C567.835 175 560 167.165 560 157.5C560 147.835 567.835 140 577.5 140Z" fill="#71979D"/>
<path d="M647.5 140C657.165 140 665 147.835 665 157.5C665 167.165 657.165 175 647.5 175C637.835 175 630 167.165 630 157.5C630 147.835 637.835 140 647.5 140Z" fill="#71979D"/>
<path d="M297.5 175C307.165 175 315 182.835 315 192.5C315 202.165 307.165 210 297.5 210C287.835 210 280 202.165 280 192.5C280 182.835 287.835 175 297.5 175Z" fill="#71979D"/>
<path d="M367.5 175C377.165 175 385 182.835 385 192.5C385 202.165 377.165 210 367.5 210C357.835 210 350 202.165 350 192.5C350 182.835 357.835 175 367.5 175Z" fill="#71979D"/>
<path d="M437.5 175C447.165 175 455 182.835 455 192.5C455 202.165 447.165 210 437.5 210C427.835 210 420 202.165 420 192.5C420 182.835 427.835 175 437.5 175Z" fill="#71979D"/>
<path d="M507.5 175C517.165 175 525 182.835 525 192.5C525 202.165 517.165 210 507.5 210C497.835 210 490 202.165 490 192.5C490 182.835 497.835 175 507.5 175Z" fill="#71979D"/>
<path d="M577.5 175C587.165 175 595 182.835 595 192.5C595 202.165 587.165 210 577.5 210C567.835 210 560 202.165 560 192.5C560 182.835 567.835 175 577.5 175Z" fill="#71979D"/>
<path d="M682.5 175C692.165 175 700 182.835 700 192.5C700 202.165 692.165 210 682.5 210C672.835 210 665 202.165 665 192.5C665 182.835 672.835 175 682.5 175Z" fill="#71979D"/>
<path d="M297.5 210C307.165 210 315 217.835 315 227.5C315 237.165 307.165 245 297.5 245C287.835 245 280 237.165 280 227.5C280 217.835 287.835 210 297.5 210Z" fill="#71979D"/>
<path d="M367.5 210C377.165 210 385 217.835 385 227.5C385 237.165 377.165 245 367.5 245C357.835 245 350 237.165 350 227.5C350 217.835 357.835 210 367.5 210Z" fill="#71979D"/>
<path d="M437.5 210C447.165 210 455 217.835 455 227.5C455 237.165 447.165 245 437.5 245C427.835 245 420 237.165 420 227.5C420 217.835 427.835 210 437.5 210Z" fill="#71979D"/>
<path d="M507.5 210C517.165 210 525 217.835 525 227.5C525 237.165 517.165 245 507.5 245C497.835 245 490 237.165 490 227.5C490 217.835 497.835 210 507.5 210Z" fill="#71979D"/>
<path d="M577.5 210C587.165 210 595 217.835 595 227.5C595 237.165 587.165 245 577.5 245C567.835 245 560 237.165 560 227.5C560 217.835 567.835 210 577.5 210Z" fill="#71979D"/>
<path d="M647.5 210C657.165 210 665 217.835 665 227.5C665 237.165 657.165 245 647.5 245C637.835 245 630 237.165 630 227.5C630 217.835 637.835 210 647.5 210Z" fill="#71979D"/>
<path d="M717.5 210C727.165 210 735 217.835 735 227.5C735 237.165 727.165 245 717.5 245C707.835 245 700 237.165 700 227.5C700 217.835 707.835 210 717.5 210Z" fill="#71979D"/>
<path d="M297.5 245C307.165 245 315 252.835 315 262.5C315 272.165 307.165 280 297.5 280C287.835 280 280 272.165 280 262.5C280 252.835 287.835 245 297.5 245Z" fill="#71979D"/>
<path d="M402.5 245C412.165 245 420 252.835 420 262.5C420 272.165 412.165 280 402.5 280C392.835 280 385 272.165 385 262.5C385 252.835 392.835 245 402.5 245Z" fill="#71979D"/>
<path d="M542.5 245C552.165 245 560 252.835 560 262.5C560 272.165 552.165 280 542.5 280C532.835 280 525 272.165 525 262.5C525 252.835 532.835 245 542.5 245Z" fill="#71979D"/>
<path d="M612.5 245C622.165 245 630 252.835 630 262.5C630 272.165 622.165 280 612.5 280C602.835 280 595 272.165 595 262.5C595 252.835 602.835 245 612.5 245Z" fill="#71979D"/>
<path d="M682.5 245C692.165 245 700 252.835 700 262.5C700 272.165 692.165 280 682.5 280C672.835 280 665 272.165 665 262.5C665 252.835 672.835 245 682.5 245Z" fill="#71979D"/>
<path d="M717.5 245C727.165 245 735 252.835 735 262.5C735 272.165 727.165 280 717.5 280C707.835 280 700 272.165 700 262.5C700 252.835 707.835 245 717.5 245Z" fill="#71979D"/>
<path d="M157.5 280C167.165 280 175 287.835 175 297.5C175 307.165 167.165 315 157.5 315C147.835 315 140 307.165 140 297.5C140 287.835 147.835 280 157.5 280Z" fill="#71979D"/>
<path d="M192.5 280C202.165 280 210 287.835 210 297.5C210 307.165 202.165 315 192.5 315C182.835 315 175 307.165 175 297.5C175 287.835 182.835 280 192.5 280Z" fill="#71979D"/>
<path d="M227.5 280C237.165 280 245 287.835 245 297.5C245 307.165 237.165 315 227.5 315C217.835 315 210 307.165 210 297.5C210 287.835 217.835 280 227.5 280Z" fill="#71979D"/>
<path d="M262.5 280C272.165 280 280 287.835 280 297.5C280 307.165 272.165 315 262.5 315C252.835 315 245 307.165 245 297.5C245 287.835 252.835 280 262.5 280Z" fill="#71979D"/>
<path d="M402.5 280C412.165 280 420 287.835 420 297.5C420 307.165 412.165 315 402.5 315C392.835 315 385 307.165 385 297.5C385 287.835 392.835 280 402.5 280Z" fill="#71979D"/>
<path d="M437.5 280C447.165 280 455 287.835 455 297.5C455 307.165 447.165 315 437.5 315C427.835 315 420 307.165 420 297.5C420 287.835 427.835 280 437.5 280Z" fill="#71979D"/>
<path d="M507.5 280C517.165 280 525 287.835 525 297.5C525 307.165 517.165 315 507.5 315C497.835 315 490 307.165 490 297.5C490 287.835 497.835 280 507.5 280Z" fill="#71979D"/>
<path d="M542.5 280C552.165 280 560 287.835 560 297.5C560 307.165 552.165 315 542.5 315C532.835 315 525 307.165 525 297.5C525 287.835 532.835 280 542.5 280Z" fill="#71979D"/>
<path d="M577.5 280C587.165 280 595 287.835 595 297.5C595 307.165 587.165 315 577.5 315C567.835 315 560 307.165 560 297.5C560 287.835 567.835 280 577.5 280Z" fill="#71979D"/>
<path d="M647.5 280C657.165 280 665 287.835 665 297.5C665 307.165 657.165 315 647.5 315C637.835 315 630 307.165 630 297.5C630 287.835 637.835 280 647.5 280Z" fill="#71979D"/>
<path d="M682.5 280C692.165 280 700 287.835 700 297.5C700 307.165 692.165 315 682.5 315C672.835 315 665 307.165 665 297.5C665 287.835 672.835 280 682.5 280Z" fill="#71979D"/>
<path d="M717.5 280C727.165 280 735 287.835 735 297.5C735 307.165 727.165 315 717.5 315C707.835 315 700 307.165 700 297.5C700 287.835 707.835 280 717.5 280Z" fill="#71979D"/>
<path d="M787.5 280C797.165 280 805 287.835 805 297.5C805 307.165 797.165 315 787.5 315C777.835 315 770 307.165 770 297.5C770 287.835 777.835 280 787.5 280Z" fill="#71979D"/>
<path d="M822.5 280C832.165 280 840 287.835 840 297.5C840 307.165 832.165 315 822.5 315C812.835 315 805 307.165 805 297.5C805 287.835 812.835 280 822.5 280Z" fill="#71979D"/>
<path d="M962.5 280C972.165 280 980 287.835 980 297.5C980 307.165 972.165 315 962.5 315C952.835 315 945 307.165 945 297.5C945 287.835 952.835 280 962.5 280Z" fill="#71979D"/>
<path d="M87.5 315C97.1654 315 105 322.835 105 332.5C105 342.165 97.1654 350 87.5 350C77.8351 350 70 342.165 70 332.5C70 322.835 77.8351 315 87.5 315Z" fill="#71979D"/>
<path d="M297.5 315C307.165 315 315 322.835 315 332.5C315 342.165 307.165 350 297.5 350C287.835 350 280 342.165 280 332.5C280 322.835 287.835 315 297.5 315Z" fill="#71979D"/>
<path d="M367.5 315C377.165 315 385 322.835 385 332.5C385 342.165 377.165 350 367.5 350C357.835 350 350 342.165 350 332.5C350 322.835 357.835 315 367.5 315Z" fill="#71979D"/>
<path d="M507.5 315C517.165 315 525 322.835 525 332.5C525 342.165 517.165 350 507.5 350C497.835 350 490 342.165 490 332.5C490 322.835 497.835 315 507.5 315Z" fill="#71979D"/>
<path d="M542.5 315C552.165 315 560 322.835 560 332.5C560 342.165 552.165 350 542.5 350C532.835 350 525 342.165 525 332.5C525 322.835 532.835 315 542.5 315Z" fill="#71979D"/>
<path d="M577.5 315C587.165 315 595 322.835 595 332.5C595 342.165 587.165 350 577.5 350C567.835 350 560 342.165 560 332.5C560 322.835 567.835 315 577.5 315Z" fill="#71979D"/>
<path d="M647.5 315C657.165 315 665 322.835 665 332.5C665 342.165 657.165 350 647.5 350C637.835 350 630 342.165 630 332.5C630 322.835 637.835 315 647.5 315Z" fill="#71979D"/>
<path d="M787.5 315C797.165 315 805 322.835 805 332.5C805 342.165 797.165 350 787.5 350C777.835 350 770 342.165 770 332.5C770 322.835 777.835 315 787.5 315Z" fill="#71979D"/>
<path d="M822.5 315C832.165 315 840 322.835 840 332.5C840 342.165 832.165 350 822.5 350C812.835 350 805 342.165 805 332.5C805 322.835 812.835 315 822.5 315Z" fill="#71979D"/>
<path d="M857.5 315C867.165 315 875 322.835 875 332.5C875 342.165 867.165 350 857.5 350C847.835 350 840 342.165 840 332.5C840 322.835 847.835 315 857.5 315Z" fill="#71979D"/>
<path d="M892.5 315C902.165 315 910 322.835 910 332.5C910 342.165 902.165 350 892.5 350C882.835 350 875 342.165 875 332.5C875 322.835 882.835 315 892.5 315Z" fill="#71979D"/>
<path d="M927.5 315C937.165 315 945 322.835 945 332.5C945 342.165 937.165 350 927.5 350C917.835 350 910 342.165 910 332.5C910 322.835 917.835 315 927.5 315Z" fill="#71979D"/>
<path d="M962.5 315C972.165 315 980 322.835 980 332.5C980 342.165 972.165 350 962.5 350C952.835 350 945 342.165 945 332.5C945 322.835 952.835 315 962.5 315Z" fill="#71979D"/>
<path d="M997.5 315C1007.17 315 1015 322.835 1015 332.5C1015 342.165 1007.17 350 997.5 350C987.835 350 980 342.165 980 332.5C980 322.835 987.835 315 997.5 315Z" fill="#71979D"/>
<path d="M17.5 350C27.1654 350 35 357.835 35 367.5C35 377.165 27.1654 385 17.5 385C7.8351 385 0 377.165 0 367.5C0 357.835 7.8351 350 17.5 350Z" fill="#71979D"/>
<path d="M52.5 350C62.1654 350 70 357.835 70 367.5C70 377.165 62.1654 385 52.5 385C42.8351 385 35 377.165 35 367.5C35 357.835 42.8351 350 52.5 350Z" fill="#71979D"/>
<path d="M122.5 350C132.165 350 140 357.835 140 367.5C140 377.165 132.165 385 122.5 385C112.835 385 105 377.165 105 367.5C105 357.835 112.835 350 122.5 350Z" fill="#71979D"/>
<path d="M192.5 350C202.165 350 210 357.835 210 367.5C210 377.165 202.165 385 192.5 385C182.835 385 175 377.165 175 367.5C175 357.835 182.835 350 192.5 350Z" fill="#71979D"/>
<path d="M227.5 350C237.165 350 245 357.835 245 367.5C245 377.165 237.165 385 227.5 385C217.835 385 210 377.165 210 367.5C210 357.835 217.835 350 227.5 350Z" fill="#71979D"/>
<path d="M297.5 350C307.165 350 315 357.835 315 367.5C315 377.165 307.165 385 297.5 385C287.835 385 280 377.165 280 367.5C280 357.835 287.835 350 297.5 350Z" fill="#71979D"/>
<path d="M332.5 350C342.165 350 350 357.835 350 367.5C350 377.165 342.165 385 332.5 385C322.835 385 315 377.165 315 367.5C315 357.835 322.835 350 332.5 350Z" fill="#71979D"/>
<path d="M402.5 350C412.165 350 420 357.835 420 367.5C420 377.165 412.165 385 402.5 385C392.835 385 385 377.165 385 367.5C385 357.835 392.835 350 402.5 350Z" fill="#71979D"/>
<path d="M542.5 350C552.165 350 560 357.835 560 367.5C560 377.165 552.165 385 542.5 385C532.835 385 525 377.165 525 367.5C525 357.835 532.835 350 542.5 350Z" fill="#71979D"/>
<path d="M612.5 350C622.165 350 630 357.835 630 367.5C630 377.165 622.165 385 612.5 385C602.835 385 595 377.165 595 367.5C595 357.835 602.835 350 612.5 350Z" fill="#71979D"/>
<path d="M647.5 350C657.165 350 665 357.835 665 367.5C665 377.165 657.165 385 647.5 385C637.835 385 630 377.165 630 367.5C630 357.835 637.835 350 647.5 350Z" fill="#71979D"/>
<path d="M752.5 350C762.165 350 770 357.835 770 367.5C770 377.165 762.165 385 752.5 385C742.835 385 735 377.165 735 367.5C735 357.835 742.835 350 752.5 350Z" fill="#71979D"/>
<path d="M892.5 350C902.165 350 910 357.835 910 367.5C910 377.165 902.165 385 892.5 385C882.835 385 875 377.165 875 367.5C875 357.835 882.835 350 892.5 350Z" fill="#71979D"/>
<path d="M927.5 350C937.165 350 945 357.835 945 367.5C945 377.165 937.165 385 927.5 385C917.835 385 910 377.165 910 367.5C910 357.835 917.835 350 927.5 350Z" fill="#71979D"/>
<path d="M997.5 350C1007.17 350 1015 357.835 1015 367.5C1015 377.165 1007.17 385 997.5 385C987.835 385 980 377.165 980 367.5C980 357.835 987.835 350 997.5 350Z" fill="#71979D"/>
<path d="M52.5 385C62.1654 385 70 392.835 70 402.5C70 412.165 62.1654 420 52.5 420C42.8351 420 35 412.165 35 402.5C35 392.835 42.8351 385 52.5 385Z" fill="#71979D"/>
<path d="M87.5 385C97.1654 385 105 392.835 105 402.5C105 412.165 97.1654 420 87.5 420C77.8351 420 70 412.165 70 402.5C70 392.835 77.8351 385 87.5 385Z" fill="#71979D"/>
<path d="M157.5 385C167.165 385 175 392.835 175 402.5C175 412.165 167.165 420 157.5 420C147.835 420 140 412.165 140 402.5C140 392.835 147.835 385 157.5 385Z" fill="#71979D"/>
<path d="M192.5 385C202.165 385 210 392.835 210 402.5C210 412.165 202.165 420 192.5 420C182.835 420 175 412.165 175 402.5C175 392.835 182.835 385 192.5 385Z" fill="#71979D"/>
<path d="M297.5 385C307.165 385 315 392.835 315 402.5C315 412.165 307.165 420 297.5 420C287.835 420 280 412.165 280 402.5C280 392.835 287.835 385 297.5 385Z" fill="#71979D"/>
<path d="M332.5 385C342.165 385 350 392.835 350 402.5C350 412.165 342.165 420 332.5 420C322.835 420 315 412.165 315 402.5C315 392.835 322.835 385 332.5 385Z" fill="#71979D"/>
<path d="M507.5 385C517.165 385 525 392.835 525 402.5C525 412.165 517.165 420 507.5 420C497.835 420 490 412.165 490 402.5C490 392.835 497.835 385 507.5 385Z" fill="#71979D"/>
<path d="M542.5 385C552.165 385 560 392.835 560 402.5C560 412.165 552.165 420 542.5 420C532.835 420 525 412.165 525 402.5C525 392.835 532.835 385 542.5 385Z" fill="#71979D"/>
<path d="M577.5 385C587.165 385 595 392.835 595 402.5C595 412.165 587.165 420 577.5 420C567.835 420 560 412.165 560 402.5C560 392.835 567.835 385 577.5 385Z" fill="#71979D"/>
<path d="M612.5 385C622.165 385 630 392.835 630 402.5C630 412.165 622.165 420 612.5 420C602.835 420 595 412.165 595 402.5C595 392.835 602.835 385 612.5 385Z" fill="#71979D"/>
<path d="M647.5 385C657.165 385 665 392.835 665 402.5C665 412.165 657.165 420 647.5 420C637.835 420 630 412.165 630 402.5C630 392.835 637.835 385 647.5 385Z" fill="#71979D"/>
<path d="M682.5 385C692.165 385 700 392.835 700 402.5C700 412.165 692.165 420 682.5 420C672.835 420 665 412.165 665 402.5C665 392.835 672.835 385 682.5 385Z" fill="#71979D"/>
<path d="M717.5 385C727.165 385 735 392.835 735 402.5C735 412.165 727.165 420 717.5 420C707.835 420 700 412.165 700 402.5C700 392.835 707.835 385 717.5 385Z" fill="#71979D"/>
<path d="M752.5 385C762.165 385 770 392.835 770 402.5C770 412.165 762.165 420 752.5 420C742.835 420 735 412.165 735 402.5C735 392.835 742.835 385 752.5 385Z" fill="#71979D"/>
<path d="M822.5 385C832.165 385 840 392.835 840 402.5C840 412.165 832.165 420 822.5 420C812.835 420 805 412.165 805 402.5C805 392.835 812.835 385 822.5 385Z" fill="#71979D"/>
<path d="M892.5 385C902.165 385 910 392.835 910 402.5C910 412.165 902.165 420 892.5 420C882.835 420 875 412.165 875 402.5C875 392.835 882.835 385 892.5 385Z" fill="#71979D"/>
<path d="M962.5 385C972.165 385 980 392.835 980 402.5C980 412.165 972.165 420 962.5 420C952.835 420 945 412.165 945 402.5C945 392.835 952.835 385 962.5 385Z" fill="#71979D"/>
<path d="M997.5 385C1007.17 385 1015 392.835 1015 402.5C1015 412.165 1007.17 420 997.5 420C987.835 420 980 412.165 980 402.5C980 392.835 987.835 385 997.5 385Z" fill="#71979D"/>
<path d="M52.5 420C62.1654 420 70 427.835 70 437.5C70 447.165 62.1654 455 52.5 455C42.8351 455 35 447.165 35 437.5C35 427.835 42.8351 420 52.5 420Z" fill="#71979D"/>
<path d="M87.5 420C97.1654 420 105 427.835 105 437.5C105 447.165 97.1654 455 87.5 455C77.8351 455 70 447.165 70 437.5C70 427.835 77.8351 420 87.5 420Z" fill="#71979D"/>
<path d="M157.5 420C167.165 420 175 427.835 175 437.5C175 447.165 167.165 455 157.5 455C147.835 455 140 447.165 140 437.5C140 427.835 147.835 420 157.5 420Z" fill="#71979D"/>
<path d="M192.5 420C202.165 420 210 427.835 210 437.5C210 447.165 202.165 455 192.5 455C182.835 455 175 447.165 175 437.5C175 427.835 182.835 420 192.5 420Z" fill="#71979D"/>
<path d="M822.5 420C832.165 420 840 427.835 840 437.5C840 447.165 832.165 455 822.5 455C812.835 455 805 447.165 805 437.5C805 427.835 812.835 420 822.5 420Z" fill="#71979D"/>
<path d="M892.5 420C902.165 420 910 427.835 910 437.5C910 447.165 902.165 455 892.5 455C882.835 455 875 447.165 875 437.5C875 427.835 882.835 420 892.5 420Z" fill="#71979D"/>
<path d="M997.5 420C1007.17 420 1015 427.835 1015 437.5C1015 447.165 1007.17 455 997.5 455C987.835 455 980 447.165 980 437.5C980 427.835 987.835 420 997.5 420Z" fill="#71979D"/>
<path d="M17.5 455C27.1654 455 35 462.835 35 472.5C35 482.165 27.1654 490 17.5 490C7.8351 490 0 482.165 0 472.5C0 462.835 7.8351 455 17.5 455Z" fill="#71979D"/>
<path d="M52.5 455C62.1654 455 70 462.835 70 472.5C70 482.165 62.1654 490 52.5 490C42.8351 490 35 482.165 35 472.5C35 462.835 42.8351 455 52.5 455Z" fill="#71979D"/>
<path d="M122.5 455C132.165 455 140 462.835 140 472.5C140 482.165 132.165 490 122.5 490C112.835 490 105 482.165 105 472.5C105 462.835 112.835 455 122.5 455Z" fill="#71979D"/>
<path d="M857.5 455C867.165 455 875 462.835 875 472.5C875 482.165 867.165 490 857.5 490C847.835 490 840 482.165 840 472.5C840 462.835 847.835 455 857.5 455Z" fill="#71979D"/>
<path d="M927.5 455C937.165 455 945 462.835 945 472.5C945 482.165 937.165 490 927.5 490C917.835 490 910 482.165 910 472.5C910 462.835 917.835 455 927.5 455Z" fill="#71979D"/>
<path d="M997.5 455C1007.17 455 1015 462.835 1015 472.5C1015 482.165 1007.17 490 997.5 490C987.835 490 980 482.165 980 472.5C980 462.835 987.835 455 997.5 455Z" fill="#71979D"/>
<path d="M192.5 490C202.165 490 210 497.835 210 507.5C210 517.165 202.165 525 192.5 525C182.835 525 175 517.165 175 507.5C175 497.835 182.835 490 192.5 490Z" fill="#71979D"/>
<path d="M857.5 490C867.165 490 875 497.835 875 507.5C875 517.165 867.165 525 857.5 525C847.835 525 840 517.165 840 507.5C840 497.835 847.835 490 857.5 490Z" fill="#71979D"/>
<path d="M997.5 490C1007.17 490 1015 497.835 1015 507.5C1015 517.165 1007.17 525 997.5 525C987.835 525 980 517.165 980 507.5C980 497.835 987.835 490 997.5 490Z" fill="#71979D"/>
<path d="M52.5 525C62.1654 525 70 532.835 70 542.5C70 552.165 62.1654 560 52.5 560C42.8351 560 35 552.165 35 542.5C35 532.835 42.8351 525 52.5 525Z" fill="#71979D"/>
<path d="M122.5 525C132.165 525 140 532.835 140 542.5C140 552.165 132.165 560 122.5 560C112.835 560 105 552.165 105 542.5C105 532.835 112.835 525 122.5 525Z" fill="#71979D"/>
<path d="M157.5 525C167.165 525 175 532.835 175 542.5C175 552.165 167.165 560 157.5 560C147.835 560 140 552.165 140 542.5C140 532.835 147.835 525 157.5 525Z" fill="#71979D"/>
<path d="M192.5 525C202.165 525 210 532.835 210 542.5C210 552.165 202.165 560 192.5 560C182.835 560 175 552.165 175 542.5C175 532.835 182.835 525 192.5 525Z" fill="#71979D"/>
<path d="M822.5 525C832.165 525 840 532.835 840 542.5C840 552.165 832.165 560 822.5 560C812.835 560 805 552.165 805 542.5C805 532.835 812.835 525 822.5 525Z" fill="#71979D"/>
<path d="M892.5 525C902.165 525 910 532.835 910 542.5C910 552.165 902.165 560 892.5 560C882.835 560 875 552.165 875 542.5C875 532.835 882.835 525 892.5 525Z" fill="#71979D"/>
<path d="M17.5 560C27.1654 560 35 567.835 35 577.5C35 587.165 27.1654 595 17.5 595C7.8351 595 0 587.165 0 577.5C0 567.835 7.8351 560 17.5 560Z" fill="#71979D"/>
<path d="M52.5 560C62.1654 560 70 567.835 70 577.5C70 587.165 62.1654 595 52.5 595C42.8351 595 35 587.165 35 577.5C35 567.835 42.8351 560 52.5 560Z" fill="#71979D"/>
<path d="M87.5 560C97.1654 560 105 567.835 105 577.5C105 587.165 97.1654 595 87.5 595C77.8351 595 70 587.165 70 577.5C70 567.835 77.8351 560 87.5 560Z" fill="#71979D"/>
<path d="M122.5 560C132.165 560 140 567.835 140 577.5C140 587.165 132.165 595 122.5 595C112.835 595 105 587.165 105 577.5C105 567.835 112.835 560 122.5 560Z" fill="#71979D"/>
<path d="M962.5 560C972.165 560 980 567.835 980 577.5C980 587.165 972.165 595 962.5 595C952.835 595 945 587.165 945 577.5C945 567.835 952.835 560 962.5 560Z" fill="#71979D"/>
<path d="M17.5 595C27.1654 595 35 602.835 35 612.5C35 622.165 27.1654 630 17.5 630C7.8351 630 0 622.165 0 612.5C0 602.835 7.8351 595 17.5 595Z" fill="#71979D"/>
<path d="M52.5 595C62.1654 595 70 602.835 70 612.5C70 622.165 62.1654 630 52.5 630C42.8351 630 35 622.165 35 612.5C35 602.835 42.8351 595 52.5 595Z" fill="#71979D"/>
<path d="M122.5 595C132.165 595 140 602.835 140 612.5C140 622.165 132.165 630 122.5 630C112.835 630 105 622.165 105 612.5C105 602.835 112.835 595 122.5 595Z" fill="#71979D"/>
<path d="M192.5 595C202.165 595 210 602.835 210 612.5C210 622.165 202.165 630 192.5 630C182.835 630 175 622.165 175 612.5C175 602.835 182.835 595 192.5 595Z" fill="#71979D"/>
<path d="M262.5 595C272.165 595 280 602.835 280 612.5C280 622.165 272.165 630 262.5 630C252.835 630 245 622.165 245 612.5C245 602.835 252.835 595 262.5 595Z" fill="#71979D"/>
<path d="M402.5 595C412.165 595 420 602.835 420 612.5C420 622.165 412.165 630 402.5 630C392.835 630 385 622.165 385 612.5C385 602.835 392.835 595 402.5 595Z" fill="#71979D"/>
<path d="M542.5 595C552.165 595 560 602.835 560 612.5C560 622.165 552.165 630 542.5 630C532.835 630 525 622.165 525 612.5C525 602.835 532.835 595 542.5 595Z" fill="#71979D"/>
<path d="M647.5 595C657.165 595 665 602.835 665 612.5C665 622.165 657.165 630 647.5 630C637.835 630 630 622.165 630 612.5C630 602.835 637.835 595 647.5 595Z" fill="#71979D"/>
<path d="M787.5 595C797.165 595 805 602.835 805 612.5C805 622.165 797.165 630 787.5 630C777.835 630 770 622.165 770 612.5C770 602.835 777.835 595 787.5 595Z" fill="#71979D"/>
<path d="M822.5 595C832.165 595 840 602.835 840 612.5C840 622.165 832.165 630 822.5 630C812.835 630 805 622.165 805 612.5C805 602.835 812.835 595 822.5 595Z" fill="#71979D"/>
<path d="M857.5 595C867.165 595 875 602.835 875 612.5C875 622.165 867.165 630 857.5 630C847.835 630 840 622.165 840 612.5C840 602.835 847.835 595 857.5 595Z" fill="#71979D"/>
<path d="M892.5 595C902.165 595 910 602.835 910 612.5C910 622.165 902.165 630 892.5 630C882.835 630 875 622.165 875 612.5C875 602.835 882.835 595 892.5 595Z" fill="#71979D"/>
<path d="M927.5 595C937.165 595 945 602.835 945 612.5C945 622.165 937.165 630 927.5 630C917.835 630 910 622.165 910 612.5C910 602.835 917.835 595 927.5 595Z" fill="#71979D"/>
<path d="M997.5 595C1007.17 595 1015 602.835 1015 612.5C1015 622.165 1007.17 630 997.5 630C987.835 630 980 622.165 980 612.5C980 602.835 987.835 595 997.5 595Z" fill="#71979D"/>
<path d="M122.5 630C132.165 630 140 637.835 140 647.5C140 657.165 132.165 665 122.5 665C112.835 665 105 657.165 105 647.5C105 637.835 112.835 630 122.5 630Z" fill="#71979D"/>
<path d="M227.5 630C237.165 630 245 637.835 245 647.5C245 657.165 237.165 665 227.5 665C217.835 665 210 657.165 210 647.5C210 637.835 217.835 630 227.5 630Z" fill="#71979D"/>
<path d="M262.5 630C272.165 630 280 637.835 280 647.5C280 657.165 272.165 665 262.5 665C252.835 665 245 657.165 245 647.5C245 637.835 252.835 630 262.5 630Z" fill="#71979D"/>
<path d="M367.5 630C377.165 630 385 637.835 385 647.5C385 657.165 377.165 665 367.5 665C357.835 665 350 657.165 350 647.5C350 637.835 357.835 630 367.5 630Z" fill="#71979D"/>
<path d="M437.5 630C447.165 630 455 637.835 455 647.5C455 657.165 447.165 665 437.5 665C427.835 665 420 657.165 420 647.5C420 637.835 427.835 630 437.5 630Z" fill="#71979D"/>
<path d="M507.5 630C517.165 630 525 637.835 525 647.5C525 657.165 517.165 665 507.5 665C497.835 665 490 657.165 490 647.5C490 637.835 497.835 630 507.5 630Z" fill="#71979D"/>
<path d="M542.5 630C552.165 630 560 637.835 560 647.5C560 657.165 552.165 665 542.5 665C532.835 665 525 657.165 525 647.5C525 637.835 532.835 630 542.5 630Z" fill="#71979D"/>
<path d="M577.5 630C587.165 630 595 637.835 595 647.5C595 657.165 587.165 665 577.5 665C567.835 665 560 657.165 560 647.5C560 637.835 567.835 630 577.5 630Z" fill="#71979D"/>
<path d="M612.5 630C622.165 630 630 637.835 630 647.5C630 657.165 622.165 665 612.5 665C602.835 665 595 657.165 595 647.5C595 637.835 602.835 630 612.5 630Z" fill="#71979D"/>
<path d="M822.5 630C832.165 630 840 637.835 840 647.5C840 657.165 832.165 665 822.5 665C812.835 665 805 657.165 805 647.5C805 637.835 812.835 630 822.5 630Z" fill="#71979D"/>
<path d="M857.5 630C867.165 630 875 637.835 875 647.5C875 657.165 867.165 665 857.5 665C847.835 665 840 657.165 840 647.5C840 637.835 847.835 630 857.5 630Z" fill="#71979D"/>
<path d="M892.5 630C902.165 630 910 637.835 910 647.5C910 657.165 902.165 665 892.5 665C882.835 665 875 657.165 875 647.5C875 637.835 882.835 630 892.5 630Z" fill="#71979D"/>
<path d="M927.5 630C937.165 630 945 637.835 945 647.5C945 657.165 937.165 665 927.5 665C917.835 665 910 657.165 910 647.5C910 637.835 917.835 630 927.5 630Z" fill="#71979D"/>
<path d="M997.5 630C1007.17 630 1015 637.835 1015 647.5C1015 657.165 1007.17 665 997.5 665C987.835 665 980 657.165 980 647.5C980 637.835 987.835 630 997.5 630Z" fill="#71979D"/>
<path d="M87.5 665C97.1654 665 105 672.835 105 682.5C105 692.165 97.1654 700 87.5 700C77.8351 700 70 692.165 70 682.5C70 672.835 77.8351 665 87.5 665Z" fill="#71979D"/>
<path d="M122.5 665C132.165 665 140 672.835 140 682.5C140 692.165 132.165 700 122.5 700C112.835 700 105 692.165 105 682.5C105 672.835 112.835 665 122.5 665Z" fill="#71979D"/>
<path d="M297.5 665C307.165 665 315 672.835 315 682.5C315 692.165 307.165 700 297.5 700C287.835 700 280 692.165 280 682.5C280 672.835 287.835 665 297.5 665Z" fill="#71979D"/>
<path d="M332.5 665C342.165 665 350 672.835 350 682.5C350 692.165 342.165 700 332.5 700C322.835 700 315 692.165 315 682.5C315 672.835 322.835 665 332.5 665Z" fill="#71979D"/>
<path d="M367.5 665C377.165 665 385 672.835 385 682.5C385 692.165 377.165 700 367.5 700C357.835 700 350 692.165 350 682.5C350 672.835 357.835 665 367.5 665Z" fill="#71979D"/>
<path d="M472.5 665C482.165 665 490 672.835 490 682.5C490 692.165 482.165 700 472.5 700C462.835 700 455 692.165 455 682.5C455 672.835 462.835 665 472.5 665Z" fill="#71979D"/>
<path d="M507.5 665C517.165 665 525 672.835 525 682.5C525 692.165 517.165 700 507.5 700C497.835 700 490 692.165 490 682.5C490 672.835 497.835 665 507.5 665Z" fill="#71979D"/>
<path d="M542.5 665C552.165 665 560 672.835 560 682.5C560 692.165 552.165 700 542.5 700C532.835 700 525 692.165 525 682.5C525 672.835 532.835 665 542.5 665Z" fill="#71979D"/>
<path d="M577.5 665C587.165 665 595 672.835 595 682.5C595 692.165 587.165 700 577.5 700C567.835 700 560 692.165 560 682.5C560 672.835 567.835 665 577.5 665Z" fill="#71979D"/>
<path d="M612.5 665C622.165 665 630 672.835 630 682.5C630 692.165 622.165 700 612.5 700C602.835 700 595 692.165 595 682.5C595 672.835 602.835 665 612.5 665Z" fill="#71979D"/>
<path d="M682.5 665C692.165 665 700 672.835 700 682.5C700 692.165 692.165 700 682.5 700C672.835 700 665 692.165 665 682.5C665 672.835 672.835 665 682.5 665Z" fill="#71979D"/>
<path d="M717.5 665C727.165 665 735 672.835 735 682.5C735 692.165 727.165 700 717.5 700C707.835 700 700 692.165 700 682.5C700 672.835 707.835 665 717.5 665Z" fill="#71979D"/>
<path d="M822.5 665C832.165 665 840 672.835 840 682.5C840 692.165 832.165 700 822.5 700C812.835 700 805 692.165 805 682.5C805 672.835 812.835 665 822.5 665Z" fill="#71979D"/>
<path d="M892.5 665C902.165 665 910 672.835 910 682.5C910 692.165 902.165 700 892.5 700C882.835 700 875 692.165 875 682.5C875 672.835 882.835 665 892.5 665Z" fill="#71979D"/>
<path d="M962.5 665C972.165 665 980 672.835 980 682.5C980 692.165 972.165 700 962.5 700C952.835 700 945 692.165 945 682.5C945 672.835 952.835 665 962.5 665Z" fill="#71979D"/>
<path d="M997.5 665C1007.17 665 1015 672.835 1015 682.5C1015 692.165 1007.17 700 997.5 700C987.835 700 980 692.165 980 682.5C980 672.835 987.835 665 997.5 665Z" fill="#71979D"/>
<path d="M17.5 700C27.1654 700 35 707.835 35 717.5C35 727.165 27.1654 735 17.5 735C7.8351 735 0 727.165 0 717.5C0 707.835 7.8351 700 17.5 700Z" fill="#71979D"/>
<path d="M52.5 700C62.1654 700 70 707.835 70 717.5C70 727.165 62.1654 735 52.5 735C42.8351 735 35 727.165 35 717.5C35 707.835 42.8351 700 52.5 700Z" fill="#71979D"/>
<path d="M157.5 700C167.165 700 175 707.835 175 717.5C175 727.165 167.165 735 157.5 735C147.835 735 140 727.165 140 717.5C140 707.835 147.835 700 157.5 700Z" fill="#71979D"/>
<path d="M227.5 700C237.165 700 245 707.835 245 717.5C245 727.165 237.165 735 227.5 735C217.835 735 210 727.165 210 717.5C210 707.835 217.835 700 227.5 700Z" fill="#71979D"/>
<path d="M262.5 700C272.165 700 280 707.835 280 717.5C280 727.165 272.165 735 262.5 735C252.835 735 245 727.165 245 717.5C245 707.835 252.835 700 262.5 700Z" fill="#71979D"/>
<path d="M402.5 700C412.165 700 420 707.835 420 717.5C420 727.165 412.165 735 402.5 735C392.835 735 385 727.165 385 717.5C385 707.835 392.835 700 402.5 700Z" fill="#71979D"/>
<path d="M472.5 700C482.165 700 490 707.835 490 717.5C490 727.165 482.165 735 472.5 735C462.835 735 455 727.165 455 717.5C455 707.835 462.835 700 472.5 700Z" fill="#71979D"/>
<path d="M507.5 700C517.165 700 525 707.835 525 717.5C525 727.165 517.165 735 507.5 735C497.835 735 490 727.165 490 717.5C490 707.835 497.835 700 507.5 700Z" fill="#71979D"/>
<path d="M542.5 700C552.165 700 560 707.835 560 717.5C560 727.165 552.165 735 542.5 735C532.835 735 525 727.165 525 717.5C525 707.835 532.835 700 542.5 700Z" fill="#71979D"/>
<path d="M647.5 700C657.165 700 665 707.835 665 717.5C665 727.165 657.165 735 647.5 735C637.835 735 630 727.165 630 717.5C630 707.835 637.835 700 647.5 700Z" fill="#71979D"/>
<path d="M717.5 700C727.165 700 735 707.835 735 717.5C735 727.165 727.165 735 717.5 735C707.835 735 700 727.165 700 717.5C700 707.835 707.835 700 717.5 700Z" fill="#71979D"/>
<path d="M752.5 700C762.165 700 770 707.835 770 717.5C770 727.165 762.165 735 752.5 735C742.835 735 735 727.165 735 717.5C735 707.835 742.835 700 752.5 700Z" fill="#71979D"/>
<path d="M787.5 700C797.165 700 805 707.835 805 717.5C805 727.165 797.165 735 787.5 735C777.835 735 770 727.165 770 717.5C770 707.835 777.835 700 787.5 700Z" fill="#71979D"/>
<path d="M822.5 700C832.165 700 840 707.835 840 717.5C840 727.165 832.165 735 822.5 735C812.835 735 805 727.165 805 717.5C805 707.835 812.835 700 822.5 700Z" fill="#71979D"/>
<path d="M857.5 700C867.165 700 875 707.835 875 717.5C875 727.165 867.165 735 857.5 735C847.835 735 840 727.165 840 717.5C840 707.835 847.835 700 857.5 700Z" fill="#71979D"/>
<path d="M997.5 700C1007.17 700 1015 707.835 1015 717.5C1015 727.165 1007.17 735 997.5 735C987.835 735 980 727.165 980 717.5C980 707.835 987.835 700 997.5 700Z" fill="#71979D"/>
<path d="M297.5 735C307.165 735 315 742.835 315 752.5C315 762.165 307.165 770 297.5 770C287.835 770 280 762.165 280 752.5C280 742.835 287.835 735 297.5 735Z" fill="#71979D"/>
<path d="M402.5 735C412.165 735 420 742.835 420 752.5C420 762.165 412.165 770 402.5 770C392.835 770 385 762.165 385 752.5C385 742.835 392.835 735 402.5 735Z" fill="#71979D"/>
<path d="M437.5 735C447.165 735 455 742.835 455 752.5C455 762.165 447.165 770 437.5 770C427.835 770 420 762.165 420 752.5C420 742.835 427.835 735 437.5 735Z" fill="#71979D"/>
<path d="M472.5 735C482.165 735 490 742.835 490 752.5C490 762.165 482.165 770 472.5 770C462.835 770 455 762.165 455 752.5C455 742.835 462.835 735 472.5 735Z" fill="#71979D"/>
<path d="M612.5 735C622.165 735 630 742.835 630 752.5C630 762.165 622.165 770 612.5 770C602.835 770 595 762.165 595 752.5C595 742.835 602.835 735 612.5 735Z" fill="#71979D"/>
<path d="M647.5 735C657.165 735 665 742.835 665 752.5C665 762.165 657.165 770 647.5 770C637.835 770 630 762.165 630 752.5C630 742.835 637.835 735 647.5 735Z" fill="#71979D"/>
<path d="M717.5 735C727.165 735 735 742.835 735 752.5C735 762.165 727.165 770 717.5 770C707.835 770 700 762.165 700 752.5C700 742.835 707.835 735 717.5 735Z" fill="#71979D"/>
<path d="M857.5 735C867.165 735 875 742.835 875 752.5C875 762.165 867.165 770 857.5 770C847.835 770 840 762.165 840 752.5C840 742.835 847.835 735 857.5 735Z" fill="#71979D"/>
<path d="M927.5 735C937.165 735 945 742.835 945 752.5C945 762.165 937.165 770 927.5 770C917.835 770 910 762.165 910 752.5C910 742.835 917.835 735 927.5 735Z" fill="#71979D"/>
<path d="M997.5 735C1007.17 735 1015 742.835 1015 752.5C1015 762.165 1007.17 770 997.5 770C987.835 770 980 762.165 980 752.5C980 742.835 987.835 735 997.5 735Z" fill="#71979D"/>
<path d="M297.5 770C307.165 770 315 777.835 315 787.5C315 797.165 307.165 805 297.5 805C287.835 805 280 797.165 280 787.5C280 777.835 287.835 770 297.5 770Z" fill="#71979D"/>
<path d="M367.5 770C377.165 770 385 777.835 385 787.5C385 797.165 377.165 805 367.5 805C357.835 805 350 797.165 350 787.5C350 777.835 357.835 770 367.5 770Z" fill="#71979D"/>
<path d="M507.5 770C517.165 770 525 777.835 525 787.5C525 797.165 517.165 805 507.5 805C497.835 805 490 797.165 490 787.5C490 777.835 497.835 770 507.5 770Z" fill="#71979D"/>
<path d="M542.5 770C552.165 770 560 777.835 560 787.5C560 797.165 552.165 805 542.5 805C532.835 805 525 797.165 525 787.5C525 777.835 532.835 770 542.5 770Z" fill="#71979D"/>
<path d="M577.5 770C587.165 770 595 777.835 595 787.5C595 797.165 587.165 805 577.5 805C567.835 805 560 797.165 560 787.5C560 777.835 567.835 770 577.5 770Z" fill="#71979D"/>
<path d="M682.5 770C692.165 770 700 777.835 700 787.5C700 797.165 692.165 805 682.5 805C672.835 805 665 797.165 665 787.5C665 777.835 672.835 770 682.5 770Z" fill="#71979D"/>
<path d="M717.5 770C727.165 770 735 777.835 735 787.5C735 797.165 727.165 805 717.5 805C707.835 805 700 797.165 700 787.5C700 777.835 707.835 770 717.5 770Z" fill="#71979D"/>
<path d="M787.5 770C797.165 770 805 777.835 805 787.5C805 797.165 797.165 805 787.5 805C777.835 805 770 797.165 770 787.5C770 777.835 777.835 770 787.5 770Z" fill="#71979D"/>
<path d="M857.5 770C867.165 770 875 777.835 875 787.5C875 797.165 867.165 805 857.5 805C847.835 805 840 797.165 840 787.5C840 777.835 847.835 770 857.5 770Z" fill="#71979D"/>
<path d="M997.5 770C1007.17 770 1015 777.835 1015 787.5C1015 797.165 1007.17 805 997.5 805C987.835 805 980 797.165 980 787.5C980 777.835 987.835 770 997.5 770Z" fill="#71979D"/>
<path d="M297.5 805C307.165 805 315 812.835 315 822.5C315 832.165 307.165 840 297.5 840C287.835 840 280 832.165 280 822.5C280 812.835 287.835 805 297.5 805Z" fill="#71979D"/>
<path d="M367.5 805C377.165 805 385 812.835 385 822.5C385 832.165 377.165 840 367.5 840C357.835 840 350 832.165 350 822.5C350 812.835 357.835 805 367.5 805Z" fill="#71979D"/>
<path d="M437.5 805C447.165 805 455 812.835 455 822.5C455 832.165 447.165 840 437.5 840C427.835 840 420 832.165 420 822.5C420 812.835 427.835 805 437.5 805Z" fill="#71979D"/>
<path d="M472.5 805C482.165 805 490 812.835 490 822.5C490 832.165 482.165 840 472.5 840C462.835 840 455 832.165 455 822.5C455 812.835 462.835 805 472.5 805Z" fill="#71979D"/>
<path d="M507.5 805C517.165 805 525 812.835 525 822.5C525 832.165 517.165 840 507.5 840C497.835 840 490 832.165 490 822.5C490 812.835 497.835 805 507.5 805Z" fill="#71979D"/>
<path d="M542.5 805C552.165 805 560 812.835 560 822.5C560 832.165 552.165 840 542.5 840C532.835 840 525 832.165 525 822.5C525 812.835 532.835 805 542.5 805Z" fill="#71979D"/>
<path d="M577.5 805C587.165 805 595 812.835 595 822.5C595 832.165 587.165 840 577.5 840C567.835 840 560 832.165 560 822.5C560 812.835 567.835 805 577.5 805Z" fill="#71979D"/>
<path d="M647.5 805C657.165 805 665 812.835 665 822.5C665 832.165 657.165 840 647.5 840C637.835 840 630 832.165 630 822.5C630 812.835 637.835 805 647.5 805Z" fill="#71979D"/>
<path d="M682.5 805C692.165 805 700 812.835 700 822.5C700 832.165 692.165 840 682.5 840C672.835 840 665 832.165 665 822.5C665 812.835 672.835 805 682.5 805Z" fill="#71979D"/>
<path d="M717.5 805C727.165 805 735 812.835 735 822.5C735 832.165 727.165 840 717.5 840C707.835 840 700 832.165 700 822.5C700 812.835 707.835 805 717.5 805Z" fill="#71979D"/>
<path d="M857.5 805C867.165 805 875 812.835 875 822.5C875 832.165 867.165 840 857.5 840C847.835 840 840 832.165 840 822.5C840 812.835 847.835 805 857.5 805Z" fill="#71979D"/>
<path d="M892.5 805C902.165 805 910 812.835 910 822.5C910 832.165 902.165 840 892.5 840C882.835 840 875 832.165 875 822.5C875 812.835 882.835 805 892.5 805Z" fill="#71979D"/>
<path d="M962.5 805C972.165 805 980 812.835 980 822.5C980 832.165 972.165 840 962.5 840C952.835 840 945 832.165 945 822.5C945 812.835 952.835 805 962.5 805Z" fill="#71979D"/>
<path d="M297.5 840C307.165 840 315 847.835 315 857.5C315 867.165 307.165 875 297.5 875C287.835 875 280 867.165 280 857.5C280 847.835 287.835 840 297.5 840Z" fill="#71979D"/>
<path d="M367.5 840C377.165 840 385 847.835 385 857.5C385 867.165 377.165 875 367.5 875C357.835 875 350 867.165 350 857.5C350 847.835 357.835 840 367.5 840Z" fill="#71979D"/>
<path d="M437.5 840C447.165 840 455 847.835 455 857.5C455 867.165 447.165 875 437.5 875C427.835 875 420 867.165 420 857.5C420 847.835 427.835 840 437.5 840Z" fill="#71979D"/>
<path d="M542.5 840C552.165 840 560 847.835 560 857.5C560 867.165 552.165 875 542.5 875C532.835 875 525 867.165 525 857.5C525 847.835 532.835 840 542.5 840Z" fill="#71979D"/>
<path d="M577.5 840C587.165 840 595 847.835 595 857.5C595 867.165 587.165 875 577.5 875C567.835 875 560 867.165 560 857.5C560 847.835 567.835 840 577.5 840Z" fill="#71979D"/>
<path d="M612.5 840C622.165 840 630 847.835 630 857.5C630 867.165 622.165 875 612.5 875C602.835 875 595 867.165 595 857.5C595 847.835 602.835 840 612.5 840Z" fill="#71979D"/>
<path d="M682.5 840C692.165 840 700 847.835 700 857.5C700 867.165 692.165 875 682.5 875C672.835 875 665 867.165 665 857.5C665 847.835 672.835 840 682.5 840Z" fill="#71979D"/>
<path d="M717.5 840C727.165 840 735 847.835 735 857.5C735 867.165 727.165 875 717.5 875C707.835 875 700 867.165 700 857.5C700 847.835 707.835 840 717.5 840Z" fill="#71979D"/>
<path d="M752.5 840C762.165 840 770 847.835 770 857.5C770 867.165 762.165 875 752.5 875C742.835 875 735 867.165 735 857.5C735 847.835 742.835 840 752.5 840Z" fill="#71979D"/>
<path d="M787.5 840C797.165 840 805 847.835 805 857.5C805 867.165 797.165 875 787.5 875C777.835 875 770 867.165 770 857.5C770 847.835 777.835 840 787.5 840Z" fill="#71979D"/>
<path d="M822.5 840C832.165 840 840 847.835 840 857.5C840 867.165 832.165 875 822.5 875C812.835 875 805 867.165 805 857.5C805 847.835 812.835 840 822.5 840Z" fill="#71979D"/>
<path d="M857.5 840C867.165 840 875 847.835 875 857.5C875 867.165 867.165 875 857.5 875C847.835 875 840 867.165 840 857.5C840 847.835 847.835 840 857.5 840Z" fill="#71979D"/>
<path d="M962.5 840C972.165 840 980 847.835 980 857.5C980 867.165 972.165 875 962.5 875C952.835 875 945 867.165 945 857.5C945 847.835 952.835 840 962.5 840Z" fill="#71979D"/>
<path d="M997.5 840C1007.17 840 1015 847.835 1015 857.5C1015 867.165 1007.17 875 997.5 875C987.835 875 980 867.165 980 857.5C980 847.835 987.835 840 997.5 840Z" fill="#71979D"/>
<path d="M367.5 875C377.165 875 385 882.835 385 892.5C385 902.165 377.165 910 367.5 910C357.835 910 350 902.165 350 892.5C350 882.835 357.835 875 367.5 875Z" fill="#71979D"/>
<path d="M402.5 875C412.165 875 420 882.835 420 892.5C420 902.165 412.165 910 402.5 910C392.835 910 385 902.165 385 892.5C385 882.835 392.835 875 402.5 875Z" fill="#71979D"/>
<path d="M437.5 875C447.165 875 455 882.835 455 892.5C455 902.165 447.165 910 437.5 910C427.835 910 420 902.165 420 892.5C420 882.835 427.835 875 437.5 875Z" fill="#71979D"/>
<path d="M472.5 875C482.165 875 490 882.835 490 892.5C490 902.165 482.165 910 472.5 910C462.835 910 455 902.165 455 892.5C455 882.835 462.835 875 472.5 875Z" fill="#71979D"/>
<path d="M507.5 875C517.165 875 525 882.835 525 892.5C525 902.165 517.165 910 507.5 910C497.835 910 490 902.165 490 892.5C490 882.835 497.835 875 507.5 875Z" fill="#71979D"/>
<path d="M577.5 875C587.165 875 595 882.835 595 892.5C595 902.165 587.165 910 577.5 910C567.835 910 560 902.165 560 892.5C560 882.835 567.835 875 577.5 875Z" fill="#71979D"/>
<path d="M647.5 875C657.165 875 665 882.835 665 892.5C665 902.165 657.165 910 647.5 910C637.835 910 630 902.165 630 892.5C630 882.835 637.835 875 647.5 875Z" fill="#71979D"/>
<path d="M822.5 875C832.165 875 840 882.835 840 892.5C840 902.165 832.165 910 822.5 910C812.835 910 805 902.165 805 892.5C805 882.835 812.835 875 822.5 875Z" fill="#71979D"/>
<path d="M927.5 875C937.165 875 945 882.835 945 892.5C945 902.165 937.165 910 927.5 910C917.835 910 910 902.165 910 892.5C910 882.835 917.835 875 927.5 875Z" fill="#71979D"/>
<path d="M962.5 875C972.165 875 980 882.835 980 892.5C980 902.165 972.165 910 962.5 910C952.835 910 945 902.165 945 892.5C945 882.835 952.835 875 962.5 875Z" fill="#71979D"/>
<path d="M367.5 910C377.165 910 385 917.835 385 927.5C385 937.165 377.165 945 367.5 945C357.835 945 350 937.165 350 927.5C350 917.835 357.835 910 367.5 910Z" fill="#71979D"/>
<path d="M402.5 910C412.165 910 420 917.835 420 927.5C420 937.165 412.165 945 402.5 945C392.835 945 385 937.165 385 927.5C385 917.835 392.835 910 402.5 910Z" fill="#71979D"/>
<path d="M472.5 910C482.165 910 490 917.835 490 927.5C490 937.165 482.165 945 472.5 945C462.835 945 455 937.165 455 927.5C455 917.835 462.835 910 472.5 910Z" fill="#71979D"/>
<path d="M542.5 910C552.165 910 560 917.835 560 927.5C560 937.165 552.165 945 542.5 945C532.835 945 525 937.165 525 927.5C525 917.835 532.835 910 542.5 910Z" fill="#71979D"/>
<path d="M647.5 910C657.165 910 665 917.835 665 927.5C665 937.165 657.165 945 647.5 945C637.835 945 630 937.165 630 927.5C630 917.835 637.835 910 647.5 910Z" fill="#71979D"/>
<path d="M682.5 910C692.165 910 700 917.835 700 927.5C700 937.165 692.165 945 682.5 945C672.835 945 665 937.165 665 927.5C665 917.835 672.835 910 682.5 910Z" fill="#71979D"/>
<path d="M717.5 910C727.165 910 735 917.835 735 927.5C735 937.165 727.165 945 717.5 945C707.835 945 700 937.165 700 927.5C700 917.835 707.835 910 717.5 910Z" fill="#71979D"/>
<path d="M752.5 910C762.165 910 770 917.835 770 927.5C770 937.165 762.165 945 752.5 945C742.835 945 735 937.165 735 927.5C735 917.835 742.835 910 752.5 910Z" fill="#71979D"/>
<path d="M962.5 910C972.165 910 980 917.835 980 927.5C980 937.165 972.165 945 962.5 945C952.835 945 945 937.165 945 927.5C945 917.835 952.835 910 962.5 910Z" fill="#71979D"/>
<path d="M997.5 910C1007.17 910 1015 917.835 1015 927.5C1015 937.165 1007.17 945 997.5 945C987.835 945 980 937.165 980 927.5C980 917.835 987.835 910 997.5 910Z" fill="#71979D"/>
<path d="M402.5 945C412.165 945 420 952.835 420 962.5C420 972.165 412.165 980 402.5 980C392.835 980 385 972.165 385 962.5C385 952.835 392.835 945 402.5 945Z" fill="#71979D"/>
<path d="M437.5 945C447.165 945 455 952.835 455 962.5C455 972.165 447.165 980 437.5 980C427.835 980 420 972.165 420 962.5C420 952.835 427.835 945 437.5 945Z" fill="#71979D"/>
<path d="M472.5 945C482.165 945 490 952.835 490 962.5C490 972.165 482.165 980 472.5 980C462.835 980 455 972.165 455 962.5C455 952.835 462.835 945 472.5 945Z" fill="#71979D"/>
<path d="M542.5 945C552.165 945 560 952.835 560 962.5C560 972.165 552.165 980 542.5 980C532.835 980 525 972.165 525 962.5C525 952.835 532.835 945 542.5 945Z" fill="#71979D"/>
<path d="M577.5 945C587.165 945 595 952.835 595 962.5C595 972.165 587.165 980 577.5 980C567.835 980 560 972.165 560 962.5C560 952.835 567.835 945 577.5 945Z" fill="#71979D"/>
<path d="M717.5 945C727.165 945 735 952.835 735 962.5C735 972.165 727.165 980 717.5 980C707.835 980 700 972.165 700 962.5C700 952.835 707.835 945 717.5 945Z" fill="#71979D"/>
<path d="M787.5 945C797.165 945 805 952.835 805 962.5C805 972.165 797.165 980 787.5 980C777.835 980 770 972.165 770 962.5C770 952.835 777.835 945 787.5 945Z" fill="#71979D"/>
<path d="M822.5 945C832.165 945 840 952.835 840 962.5C840 972.165 832.165 980 822.5 980C812.835 980 805 972.165 805 962.5C805 952.835 812.835 945 822.5 945Z" fill="#71979D"/>
<path d="M892.5 945C902.165 945 910 952.835 910 962.5C910 972.165 902.165 980 892.5 980C882.835 980 875 972.165 875 962.5C875 952.835 882.835 945 892.5 945Z" fill="#71979D"/>
<path d="M962.5 945C972.165 945 980 952.835 980 962.5C980 972.165 972.165 980 962.5 980C952.835 980 945 972.165 945 962.5C945 952.835 952.835 945 962.5 945Z" fill="#71979D"/>
<path d="M997.5 945C1007.17 945 1015 952.835 1015 962.5C1015 972.165 1007.17 980 997.5 980C987.835 980 980 972.165 980 962.5C980 952.835 987.835 945 997.5 945Z" fill="#71979D"/>
<path d="M367.5 980C377.165 980 385 987.835 385 997.5C385 1007.17 377.165 1015 367.5 1015C357.835 1015 350 1007.17 350 997.5C350 987.835 357.835 980 367.5 980Z" fill="#71979D"/>
<path d="M402.5 980C412.165 980 420 987.835 420 997.5C420 1007.17 412.165 1015 402.5 1015C392.835 1015 385 1007.17 385 997.5C385 987.835 392.835 980 402.5 980Z" fill="#71979D"/>
<path d="M437.5 980C447.165 980 455 987.835 455 997.5C455 1007.17 447.165 1015 437.5 1015C427.835 1015 420 1007.17 420 997.5C420 987.835 427.835 980 437.5 980Z" fill="#71979D"/>
<path d="M542.5 980C552.165 980 560 987.835 560 997.5C560 1007.17 552.165 1015 542.5 1015C532.835 1015 525 1007.17 525 997.5C525 987.835 532.835 980 542.5 980Z" fill="#71979D"/>
<path d="M682.5 980C692.165 980 700 987.835 700 997.5C700 1007.17 692.165 1015 682.5 1015C672.835 1015 665 1007.17 665 997.5C665 987.835 672.835 980 682.5 980Z" fill="#71979D"/>
<path d="M717.5 980C727.165 980 735 987.835 735 997.5C735 1007.17 727.165 1015 717.5 1015C707.835 1015 700 1007.17 700 997.5C700 987.835 707.835 980 717.5 980Z" fill="#71979D"/>
<path d="M752.5 980C762.165 980 770 987.835 770 997.5C770 1007.17 762.165 1015 752.5 1015C742.835 1015 735 1007.17 735 997.5C735 987.835 742.835 980 752.5 980Z" fill="#71979D"/>
<path d="M857.5 980C867.165 980 875 987.835 875 997.5C875 1007.17 867.165 1015 857.5 1015C847.835 1015 840 1007.17 840 997.5C840 987.835 847.835 980 857.5 980Z" fill="#71979D"/>
<path d="M962.5 980C972.165 980 980 987.835 980 997.5C980 1007.17 972.165 1015 962.5 1015C952.835 1015 945 1007.17 945 997.5C945 987.835 952.835 980 962.5 980Z" fill="#71979D"/>
<path d="M161.355 0.0196533H83.6454C45.7733 0.0196533 13.6881 25.0415 3.43 59.2411C2.36915 62.7789 1.54105 66.4147 0.9653 70.1313C0.33075 74.2326 0 78.4319 0 82.7072V162.261C0 207.878 37.534 244.973 83.6454 244.973L122.5 244.98L161.355 244.971C207.464 244.971 245 207.875 245 162.259V82.7072C245 37.1127 207.466 0.0196533 161.355 0.0196533ZM208.25 162.261C208.25 187.604 187.214 208.223 161.345 208.223L122.5 208.23L83.6553 208.221C57.7857 208.221 36.75 187.601 36.75 162.261V82.7072C36.75 74.7912 38.8031 67.3383 42.4169 60.8262C45.8959 54.5616 50.8179 49.174 56.7444 45.0948C64.3639 39.8493 73.6421 36.7697 83.643 36.7697H161.355C187.214 36.7697 208.25 57.3766 208.25 82.7072V162.261Z" fill="#71979D"/>
<path d="M931.355 0.0196533H853.645C815.773 0.0196533 783.688 25.0415 773.43 59.2411C772.369 62.7789 771.541 66.4147 770.965 70.1313C770.331 74.2326 770 78.4319 770 82.7072V162.261C770 207.878 807.534 244.973 853.645 244.973L892.5 244.98L931.355 244.971C977.464 244.971 1015 207.875 1015 162.259V82.7072C1015 37.1127 977.466 0.0196533 931.355 0.0196533ZM978.25 162.261C978.25 187.604 957.214 208.223 931.345 208.223L892.5 208.23L853.655 208.221C827.786 208.221 806.75 187.601 806.75 162.261V82.7072C806.75 74.7912 808.803 67.3383 812.417 60.8262C815.896 54.5616 820.818 49.174 826.744 45.0948C834.364 39.8493 843.642 36.7697 853.643 36.7697H931.355C957.214 36.7697 978.25 57.3766 978.25 82.7072V162.261Z" fill="#71979D"/>
<path d="M161.355 770.02H83.6454C45.7733 770.02 13.6881 795.041 3.43 829.241C2.36915 832.779 1.54105 836.415 0.9653 840.131C0.33075 844.233 0 848.432 0 852.707V932.261C0 977.878 37.534 1014.97 83.6454 1014.97L122.5 1014.98L161.355 1014.97C207.464 1014.97 245 977.875 245 932.259V852.707C245 807.113 207.466 770.02 161.355 770.02ZM208.25 932.261C208.25 957.604 187.214 978.223 161.345 978.223L122.5 978.23L83.6553 978.221C57.7857 978.221 36.75 957.601 36.75 932.261V852.707C36.75 844.791 38.8031 837.338 42.4169 830.826C45.8959 824.561 50.8179 819.174 56.7444 815.095C64.3639 809.849 73.6421 806.77 83.643 806.77H161.355C187.214 806.77 208.25 827.377 208.25 852.707V932.261Z" fill="#71979D"/>
<path d="M98.7185 175C82.874 175 69.9853 162.366 69.9853 146.852V98.1337C69.9853 93.2869 71.2453 88.7257 73.4513 84.7346C75.5818 80.8937 78.5974 77.5925 82.2293 75.1019C86.8945 71.8911 92.5813 70 98.7028 70H146.296C162.126 70 175.015 82.6189 175.015 98.1326V146.851C175.015 162.364 162.127 174.999 146.296 174.999H122.5L98.7185 175Z" fill="#71979D"/>
<path d="M868.719 175C852.874 175 839.985 162.366 839.985 146.852V98.1337C839.985 93.2869 841.245 88.7257 843.451 84.7346C845.582 80.8937 848.597 77.5925 852.229 75.1019C856.894 71.8911 862.581 70 868.703 70H916.296C932.126 70 945.015 82.6189 945.015 98.1326V146.851C945.015 162.364 932.127 174.999 916.296 174.999H892.5L868.719 175Z" fill="#71979D"/>
<path d="M98.7185 945C82.874 945 69.9853 932.366 69.9853 916.852V868.134C69.9853 863.287 71.2453 858.726 73.4513 854.735C75.5818 850.894 78.5974 847.593 82.2293 845.102C86.8945 841.891 92.5813 840 98.7028 840H146.296C162.126 840 175.015 852.619 175.015 868.133V916.851C175.015 932.364 162.127 944.999 146.296 944.999H122.5L98.7185 945Z" fill="#71979D"/>
<path d="M276.075 549.538C270.039 549.538 264.578 548.568 259.691 546.628C254.805 544.687 250.601 541.957 247.08 538.436C243.559 534.915 240.864 530.783 238.995 526.04C237.127 521.225 236.193 516.015 236.193 510.41C236.193 504.805 237.163 499.667 239.103 494.996C241.115 490.254 243.954 486.122 247.619 482.6C251.284 479.079 255.595 476.349 260.553 474.408C265.584 472.468 271.045 471.498 276.937 471.498C281.105 471.498 285.022 472.037 288.687 473.115C292.423 474.193 295.801 475.666 298.819 477.534C301.837 479.403 304.388 481.559 306.472 484.002L295.37 495.751C293.573 494.026 291.705 492.589 289.764 491.439C287.896 490.29 285.884 489.391 283.728 488.744C281.572 488.026 279.273 487.667 276.83 487.667C273.668 487.667 270.757 488.242 268.099 489.391C265.512 490.541 263.212 492.158 261.2 494.242C259.26 496.254 257.751 498.661 256.673 501.464C255.595 504.194 255.056 507.177 255.056 510.41C255.056 513.644 255.631 516.662 256.781 519.465C257.93 522.267 259.512 524.71 261.524 526.794C263.536 528.806 265.907 530.423 268.638 531.645C271.44 532.795 274.422 533.369 277.584 533.369C279.812 533.369 281.896 533.01 283.836 532.292C285.848 531.573 287.573 530.603 289.01 529.381C290.447 528.16 291.597 526.723 292.459 525.07C293.322 523.345 293.753 521.513 293.753 519.572V516.77L296.124 520.435H275.321V506.099H310.784C310.927 506.889 311.035 507.967 311.107 509.332C311.179 510.698 311.215 512.027 311.215 513.321C311.286 514.614 311.322 515.584 311.322 516.231C311.322 521.117 310.424 525.609 308.628 529.705C306.903 533.729 304.46 537.214 301.298 540.16C298.136 543.107 294.399 545.406 290.088 547.059C285.776 548.712 281.105 549.538 276.075 549.538ZM359.637 549.538C353.96 549.538 348.714 548.604 343.899 546.735C339.157 544.795 335.025 542.1 331.504 538.651C327.982 535.13 325.252 530.998 323.311 526.255C321.443 521.441 320.509 516.159 320.509 510.41C320.509 504.805 321.515 499.631 323.527 494.888C325.539 490.146 328.306 486.05 331.827 482.6C335.42 479.079 339.624 476.349 344.438 474.408C349.325 472.468 354.643 471.498 360.391 471.498C363.984 471.498 367.505 471.965 370.955 472.899C374.404 473.833 377.602 475.235 380.548 477.103C383.566 478.9 386.153 481.055 388.309 483.571L377.099 496.398C375.59 494.817 373.973 493.451 372.248 492.302C370.595 491.08 368.763 490.146 366.751 489.499C364.739 488.852 362.583 488.529 360.283 488.529C357.409 488.529 354.678 489.068 352.091 490.146C349.576 491.152 347.349 492.625 345.408 494.565C343.54 496.434 342.067 498.733 340.989 501.464C339.911 504.194 339.372 507.248 339.372 510.626C339.372 513.931 339.911 516.949 340.989 519.68C342.067 522.339 343.576 524.638 345.516 526.579C347.456 528.519 349.792 529.992 352.523 530.998C355.325 532.004 358.415 532.507 361.792 532.507C364.092 532.507 366.284 532.184 368.368 531.537C370.452 530.89 372.356 530.028 374.081 528.95C375.877 527.8 377.458 526.507 378.823 525.07L387.662 539.082C385.866 541.094 383.458 542.891 380.44 544.472C377.494 546.053 374.188 547.31 370.523 548.244C366.931 549.107 363.302 549.538 359.637 549.538ZM434.479 549.538C428.803 549.538 423.556 548.604 418.742 546.735C413.999 544.795 409.867 542.1 406.346 538.651C402.825 535.13 400.094 530.998 398.154 526.255C396.286 521.441 395.351 516.159 395.351 510.41C395.351 504.805 396.357 499.631 398.369 494.888C400.382 490.146 403.148 486.05 406.669 482.6C410.262 479.079 414.466 476.349 419.281 474.408C424.167 472.468 429.484 471.498 435.233 471.498C438.827 471.498 442.347 471.965 445.797 472.899C449.246 473.833 452.443 475.235 455.39 477.103C458.408 478.9 460.995 481.055 463.151 483.571L451.941 496.398C450.432 494.817 448.815 493.451 447.09 492.302C445.437 491.08 443.604 490.146 441.593 489.499C439.582 488.852 437.426 488.529 435.126 488.529C432.252 488.529 429.52 489.068 426.934 490.146C424.419 491.152 422.191 492.625 420.251 494.565C418.383 496.434 416.909 498.733 415.831 501.464C414.754 504.194 414.215 507.248 414.215 510.626C414.215 513.931 414.754 516.949 415.831 519.68C416.909 522.339 418.418 524.638 420.359 526.579C422.299 528.519 424.634 529.992 427.365 530.998C430.167 532.004 433.256 532.507 436.635 532.507C438.935 532.507 441.125 532.184 443.21 531.537C445.294 530.89 447.198 530.028 448.923 528.95C450.718 527.8 452.301 526.507 453.665 525.07L462.504 539.082C460.708 541.094 458.3 542.891 455.282 544.472C452.335 546.053 449.03 547.31 445.366 548.244C441.772 549.107 438.144 549.538 434.479 549.538ZM491.429 548.46V489.176H469.008V473.007H532.712V489.176H509.753V548.46H491.429ZM537.422 548.46V491.224H553.807L554.561 509.871L551.327 506.314C552.19 503.224 553.591 500.458 555.531 498.014C557.543 495.571 559.879 493.631 562.537 492.194C565.196 490.756 568.035 490.038 571.053 490.038C572.346 490.038 573.532 490.146 574.61 490.361C575.759 490.577 576.802 490.828 577.736 491.116L572.993 510.195C572.202 509.692 571.124 509.296 569.759 509.009C568.466 508.65 567.101 508.47 565.663 508.47C564.083 508.47 562.609 508.757 561.244 509.332C559.879 509.835 558.728 510.59 557.795 511.596C556.861 512.602 556.107 513.788 555.531 515.153C555.029 516.518 554.777 518.063 554.777 519.788V548.46H537.422ZM605.181 549.43C600.367 549.43 596.056 548.173 592.247 545.658C588.511 543.071 585.527 539.549 583.3 535.094C581.073 530.567 579.958 525.465 579.958 519.788C579.958 513.967 581.073 508.829 583.3 504.374C585.527 499.919 588.582 496.434 592.462 493.918C596.343 491.331 600.762 490.038 605.72 490.038C608.452 490.038 610.931 490.433 613.158 491.224C615.458 492.014 617.469 493.128 619.194 494.565C620.919 495.93 622.391 497.547 623.613 499.416C624.836 501.212 625.733 503.152 626.308 505.236L622.751 504.805V491.224H639.89V548.46H622.428V534.663L626.308 534.555C625.733 536.567 624.799 538.472 623.506 540.268C622.212 542.064 620.632 543.646 618.763 545.011C616.894 546.376 614.811 547.454 612.511 548.244C610.211 549.035 607.768 549.43 605.181 549.43ZM609.924 534.879C612.582 534.879 614.882 534.268 616.823 533.046C618.763 531.824 620.272 530.1 621.35 527.872C622.428 525.573 622.967 522.878 622.967 519.788C622.967 516.698 622.428 514.039 621.35 511.811C620.272 509.512 618.763 507.751 616.823 506.53C614.882 505.236 612.582 504.59 609.924 504.59C607.337 504.59 605.074 505.236 603.133 506.53C601.264 507.751 599.792 509.512 598.714 511.811C597.636 514.039 597.097 516.698 597.097 519.788C597.097 522.878 597.636 525.573 598.714 527.872C599.792 530.1 601.264 531.824 603.133 533.046C605.074 534.268 607.337 534.879 609.924 534.879ZM676.773 549.646C671.815 549.646 667.395 548.388 663.515 545.873C659.706 543.286 656.688 539.765 654.461 535.31C652.234 530.783 651.119 525.645 651.119 519.896C651.119 514.147 652.234 509.045 654.461 504.59C656.688 500.062 659.742 496.505 663.623 493.918C667.503 491.331 671.959 490.038 676.989 490.038C679.576 490.038 682.055 490.433 684.426 491.224C686.798 492.014 688.953 493.092 690.894 494.457C692.834 495.823 694.414 497.404 695.636 499.2C696.859 500.925 697.577 502.721 697.792 504.59L693.696 505.56V468.696H711.05V548.46H694.99L694.02 535.417L697.469 535.956C697.253 537.753 696.535 539.477 695.313 541.13C694.164 542.783 692.655 544.256 690.786 545.55C688.917 546.771 686.761 547.742 684.318 548.46C681.947 549.251 679.431 549.646 676.773 549.646ZM681.193 535.31C683.851 535.31 686.151 534.663 688.091 533.369C690.031 532.076 691.504 530.28 692.511 527.98C693.588 525.68 694.127 522.986 694.127 519.896C694.127 516.734 693.588 514.003 692.511 511.704C691.504 509.404 690.031 507.608 688.091 506.314C686.151 505.021 683.851 504.374 681.193 504.374C678.534 504.374 676.234 505.021 674.294 506.314C672.425 507.608 670.953 509.404 669.875 511.704C668.797 514.003 668.258 516.734 668.258 519.896C668.258 522.986 668.797 525.68 669.875 527.98C670.953 530.28 672.425 532.076 674.294 533.369C676.234 534.663 678.534 535.31 681.193 535.31ZM752.905 549.538C746.58 549.538 741.083 548.28 736.413 545.765C731.742 543.178 728.113 539.693 725.527 535.31C722.94 530.854 721.646 525.788 721.646 520.111C721.646 515.728 722.364 511.704 723.802 508.039C725.238 504.374 727.251 501.212 729.838 498.553C732.425 495.823 735.478 493.739 739 492.302C742.592 490.792 746.509 490.038 750.749 490.038C754.772 490.038 758.437 490.756 761.744 492.194C765.12 493.631 768.03 495.643 770.475 498.23C772.917 500.817 774.786 503.871 776.08 507.392C777.373 510.913 777.947 514.758 777.805 518.926L777.697 523.561H732.102L729.623 513.86H763.684L761.852 515.908V513.752C761.707 511.955 761.132 510.374 760.127 509.009C759.191 507.572 757.935 506.458 756.354 505.667C754.772 504.877 752.976 504.482 750.965 504.482C748.162 504.482 745.754 505.057 743.743 506.206C741.803 507.284 740.328 508.901 739.324 511.057C738.317 513.141 737.815 515.728 737.815 518.818C737.815 521.98 738.461 524.746 739.755 527.118C741.119 529.417 743.06 531.214 745.575 532.507C748.162 533.801 751.215 534.447 754.738 534.447C757.18 534.447 759.336 534.088 761.205 533.369C763.145 532.651 765.228 531.429 767.457 529.705L775.541 541.13C773.312 543.071 770.941 544.651 768.427 545.873C765.911 547.095 763.324 547.993 760.666 548.568C758.079 549.215 755.492 549.538 752.905 549.538Z" fill="#71979D"/>
</svg>
